<svg width="6" height="7" viewBox="0 0 6 7" fill="none" xmlns="http://www.w3.org/2000/svg">
<path fill-rule="evenodd" clip-rule="evenodd" d="M2.80104 6.52148C2.70158 6.52148 2.6062 6.48198 2.53587 6.41165C2.46555 6.34132 2.42604 6.24594 2.42604 6.14648L2.42604 1.80173L0.81654 3.41198C0.781674 3.44685 0.740282 3.47451 0.694728 3.49338C0.649173 3.51225 0.600348 3.52196 0.55104 3.52196C0.501732 3.52196 0.452907 3.51225 0.407352 3.49338C0.361798 3.47451 0.320406 3.44685 0.28554 3.41198C0.250674 3.37712 0.223017 3.33573 0.204148 3.29017C0.185278 3.24462 0.175566 3.19579 0.175566 3.14648C0.175566 3.09718 0.185278 3.04835 0.204148 3.0028C0.223017 2.95724 0.250674 2.91585 0.28554 2.88098L2.53554 0.630984C2.57037 0.596061 2.61176 0.568355 2.65732 0.54945C2.70287 0.530545 2.75171 0.520814 2.80104 0.520814C2.85037 0.520814 2.89921 0.530545 2.94477 0.54945C2.99032 0.568355 3.03171 0.596061 3.06654 0.630984L5.31654 2.88098C5.35141 2.91585 5.37906 2.95724 5.39793 3.0028C5.4168 3.04835 5.42651 3.09718 5.42651 3.14648C5.42651 3.19579 5.4168 3.24462 5.39793 3.29017C5.37906 3.33573 5.35141 3.37712 5.31654 3.41198C5.24613 3.4824 5.15062 3.52196 5.05104 3.52196C5.00173 3.52196 4.95291 3.51225 4.90735 3.49338C4.8618 3.47451 4.82041 3.44685 4.78554 3.41198L3.17604 1.80173L3.17604 6.14648C3.17604 6.24594 3.13653 6.34132 3.0662 6.41165C2.99588 6.48198 2.9005 6.52148 2.80104 6.52148Z" fill="#FF9138"/>
</svg>
