<svg width="6" height="7" viewBox="0 0 6 7" fill="none" xmlns="http://www.w3.org/2000/svg">
<path fill-rule="evenodd" clip-rule="evenodd" d="M2.80104 0.521485C2.70158 0.521485 2.6062 0.560994 2.53587 0.63132C2.46555 0.701646 2.42604 0.797028 2.42604 0.896485L2.42604 5.24124L0.81654 3.63098C0.781674 3.59612 0.740282 3.56846 0.694728 3.54959C0.649173 3.53072 0.600348 3.52101 0.55104 3.52101C0.501732 3.52101 0.452907 3.53072 0.407352 3.54959C0.361798 3.56846 0.320406 3.59612 0.28554 3.63098C0.250674 3.66585 0.223017 3.70724 0.204148 3.7528C0.185278 3.79835 0.175566 3.84718 0.175566 3.89648C0.175566 3.94579 0.185278 3.99462 0.204148 4.04017C0.223017 4.08573 0.250674 4.12712 0.28554 4.16198L2.53554 6.41198C2.57037 6.44691 2.61176 6.47461 2.65732 6.49352C2.70287 6.51242 2.75171 6.52216 2.80104 6.52216C2.85037 6.52216 2.89921 6.51242 2.94477 6.49352C2.99032 6.47461 3.03171 6.44691 3.06654 6.41198L5.31654 4.16198C5.35141 4.12712 5.37906 4.08573 5.39793 4.04017C5.4168 3.99462 5.42651 3.94579 5.42651 3.89648C5.42651 3.84718 5.4168 3.79835 5.39793 3.7528C5.37906 3.70724 5.35141 3.66585 5.31654 3.63098C5.24613 3.56057 5.15062 3.52101 5.05104 3.52101C5.00173 3.52101 4.95291 3.53072 4.90735 3.54959C4.8618 3.56846 4.82041 3.59612 4.78554 3.63098L3.17604 5.24123L3.17604 0.896485C3.17604 0.797028 3.13653 0.701646 3.0662 0.63132C2.99588 0.560993 2.9005 0.521485 2.80104 0.521485Z" fill="#E73F3F"/>
</svg>
