<svg width="32" height="32" viewBox="0 0 32 32" fill="none" xmlns="http://www.w3.org/2000/svg">
<path d="M0 16C0 7.16344 7.16344 0 16 0C24.8366 0 32 7.16344 32 16C32 24.8366 24.8366 32 16 32C7.16344 32 0 24.8366 0 16Z" fill="#FF7506"/>
<path d="M22.1167 18.0743L21.2833 16.691C21.1083 16.3827 20.95 15.7993 20.95 15.4577V13.3493C20.95 11.391 19.8 9.69935 18.1417 8.90768C17.7083 8.14102 16.9083 7.66602 15.9917 7.66602C15.0833 7.66602 14.2667 8.15768 13.8333 8.93268C12.2083 9.74102 11.0833 11.416 11.0833 13.3493V15.4577C11.0833 15.7993 10.925 16.3827 10.75 16.6827L9.90833 18.0743C9.57499 18.6327 9.49999 19.2493 9.70833 19.816C9.90833 20.3743 10.3833 20.8077 11 21.016C12.6167 21.566 14.3167 21.8327 16.0167 21.8327C17.7167 21.8327 19.4167 21.566 21.0333 21.0244C21.6167 20.8327 22.0667 20.391 22.2833 19.816C22.5 19.241 22.4417 18.6077 22.1167 18.0743Z" fill="white"/>
<path d="M18.3583 22.6743C18.0083 23.641 17.0833 24.3327 16 24.3327C15.3417 24.3327 14.6917 24.066 14.2333 23.591C13.9667 23.341 13.7667 23.0077 13.65 22.666C13.7583 22.6827 13.8667 22.691 13.9833 22.7077C14.175 22.7327 14.375 22.7577 14.575 22.7743C15.05 22.816 15.5333 22.841 16.0167 22.841C16.4917 22.841 16.9667 22.816 17.4333 22.7743C17.6083 22.7577 17.7833 22.7493 17.95 22.7243C18.0833 22.7077 18.2167 22.691 18.3583 22.6743Z" fill="white"/>
</svg>
