<svg width="49" height="48" viewBox="0 0 49 48" fill="none" xmlns="http://www.w3.org/2000/svg">
<circle opacity="0.15" cx="24.25" cy="24" r="23.5" fill="#FFAC6A" stroke="#DADADA"/>
<path d="M31.2506 20.9625L32.1551 20.058C32.2769 19.9378 32.4309 19.8555 32.5985 19.8211C32.7662 19.7868 32.9401 19.8019 33.0994 19.8645L34.2019 20.304C34.3629 20.3696 34.5008 20.4814 34.5984 20.6252C34.696 20.7691 34.7488 20.9387 34.7501 21.1125V23.1315C34.7481 23.3637 34.654 23.5856 34.4885 23.7485C34.323 23.9113 34.0996 24.0018 33.8674 24L33.8299 23.9985C26.1079 23.5185 24.5501 16.977 24.2554 14.4735C24.2426 14.3591 24.2526 14.2434 24.2846 14.1329C24.3166 14.0224 24.3701 13.9193 24.442 13.8294C24.5138 13.7396 24.6027 13.6648 24.7035 13.6093C24.8043 13.5538 24.915 13.5187 25.0294 13.506C25.0632 13.502 25.0973 13.5 25.1314 13.5H27.0814C27.2553 13.5006 27.425 13.5532 27.5688 13.6511C27.7126 13.7489 27.8239 13.8875 27.8884 14.049L28.3286 15.1515C28.3934 15.3102 28.4099 15.4845 28.3761 15.6526C28.3424 15.8207 28.2599 15.9751 28.1389 16.0965L27.2344 17.001C27.2344 17.001 27.7549 20.526 31.2506 20.9625Z" fill="#FFAC6A"/>
<path d="M24.25 34.5H22.75V30.75C22.7494 30.1534 22.5122 29.5815 22.0903 29.1597C21.6685 28.7378 21.0966 28.5006 20.5 28.5H17.5C16.9034 28.5006 16.3315 28.7378 15.9097 29.1597C15.4878 29.5815 15.2506 30.1534 15.25 30.75V34.5H13.75V30.75C13.7512 29.7558 14.1467 28.8027 14.8497 28.0997C15.5527 27.3967 16.5058 27.0012 17.5 27H20.5C21.4942 27.0012 22.4473 27.3967 23.1503 28.0997C23.8533 28.8027 24.2488 29.7558 24.25 30.75V34.5Z" fill="#FFAC6A"/>
<path d="M19 19.5C19.445 19.5 19.88 19.632 20.25 19.8792C20.62 20.1264 20.9084 20.4778 21.0787 20.889C21.249 21.3001 21.2936 21.7525 21.2068 22.189C21.12 22.6254 20.9057 23.0263 20.591 23.341C20.2763 23.6557 19.8754 23.87 19.439 23.9568C19.0025 24.0436 18.5501 23.999 18.139 23.8287C17.7278 23.6584 17.3764 23.37 17.1292 23C16.882 22.63 16.75 22.195 16.75 21.75C16.75 21.1533 16.9871 20.581 17.409 20.159C17.831 19.7371 18.4033 19.5 19 19.5ZM19 18C18.2583 18 17.5333 18.2199 16.9166 18.632C16.2999 19.044 15.8193 19.6297 15.5355 20.3149C15.2516 21.0002 15.1774 21.7542 15.3221 22.4816C15.4668 23.209 15.8239 23.8772 16.3484 24.4017C16.8728 24.9261 17.541 25.2833 18.2684 25.4279C18.9958 25.5726 19.7498 25.4984 20.4351 25.2145C21.1203 24.9307 21.706 24.4501 22.118 23.8334C22.5301 23.2167 22.75 22.4917 22.75 21.75C22.75 21.2575 22.653 20.7699 22.4646 20.3149C22.2761 19.86 21.9999 19.4466 21.6517 19.0983C21.3034 18.7501 20.89 18.4739 20.4351 18.2855C19.9801 18.097 19.4925 18 19 18Z" fill="#FFAC6A"/>
</svg>
