<svg width="49" height="48" viewBox="0 0 49 48" fill="none" xmlns="http://www.w3.org/2000/svg">
<circle opacity="0.15" cx="24.5" cy="24" r="23.5" fill="#F86D6D" stroke="#DADADA"/>
<path d="M24.26 18.15C24.2819 18.105 24.316 18.0671 24.3584 18.0406C24.4009 18.0141 24.4499 18 24.5 18C24.55 18 24.599 18.0141 24.6415 18.0406C24.6839 18.0671 24.718 18.105 24.74 18.15L25.691 20.0775C25.71 20.1165 25.7382 20.1503 25.7733 20.1759C25.8083 20.2015 25.849 20.2182 25.892 20.2245L28.022 20.5335C28.2395 20.565 28.328 20.8335 28.169 20.988L26.63 22.4895C26.5989 22.5198 26.5757 22.5572 26.5624 22.5985C26.549 22.6398 26.546 22.6838 26.5535 22.7265L26.9165 24.8475C26.9246 24.8965 26.9189 24.9468 26.9001 24.9927C26.8813 25.0386 26.85 25.0784 26.8098 25.1075C26.7696 25.1367 26.722 25.154 26.6725 25.1576C26.623 25.1613 26.5735 25.151 26.5295 25.128L24.6245 24.126C24.5863 24.106 24.5438 24.0956 24.5007 24.0956C24.4576 24.0956 24.4151 24.106 24.377 24.126L22.472 25.128C22.428 25.1506 22.3786 25.1605 22.3294 25.1567C22.2801 25.1529 22.2328 25.1355 22.1929 25.1064C22.1529 25.0773 22.1218 25.0377 22.103 24.992C22.0842 24.9463 22.0785 24.8963 22.0865 24.8475L22.4495 22.7265C22.4571 22.6839 22.4543 22.64 22.4412 22.5987C22.4282 22.5575 22.4052 22.52 22.3745 22.4895L20.8295 20.988C20.7941 20.9533 20.7691 20.9093 20.7572 20.8612C20.7454 20.813 20.7472 20.7625 20.7625 20.7153C20.7777 20.6681 20.8058 20.6261 20.8436 20.594C20.8814 20.5619 20.9274 20.5409 20.9765 20.5335L23.1065 20.2245C23.1494 20.2182 23.1901 20.2015 23.2251 20.1759C23.2602 20.1503 23.2884 20.1165 23.3075 20.0775L24.26 18.15Z" fill="#F86D6D"/>
<path d="M15.5 15C15.5 14.2044 15.8161 13.4413 16.3787 12.8787C16.9413 12.3161 17.7044 12 18.5 12H30.5C31.2956 12 32.0587 12.3161 32.6213 12.8787C33.1839 13.4413 33.5 14.2044 33.5 15V35.25C33.4999 35.3857 33.4631 35.5188 33.3933 35.6351C33.3236 35.7515 33.2236 35.8468 33.104 35.9108C32.9844 35.9748 32.8497 36.0052 32.7142 35.9988C32.5787 35.9923 32.4474 35.9492 32.3345 35.874L24.5 31.6515L16.6655 35.874C16.5526 35.9492 16.4213 35.9923 16.2858 35.9988C16.1503 36.0052 16.0156 35.9748 15.896 35.9108C15.7764 35.8468 15.6764 35.7515 15.6067 35.6351C15.5369 35.5188 15.5001 35.3857 15.5 35.25V15ZM18.5 13.5C18.1022 13.5 17.7206 13.658 17.4393 13.9393C17.158 14.2206 17 14.6022 17 15V33.849L24.0845 30.126C24.2076 30.0441 24.3521 30.0004 24.5 30.0004C24.6479 30.0004 24.7924 30.0441 24.9155 30.126L32 33.849V15C32 14.6022 31.842 14.2206 31.5607 13.9393C31.2794 13.658 30.8978 13.5 30.5 13.5H18.5Z" fill="#F86D6D"/>
</svg>
